<svg width="49" height="49" viewBox="0 0 49 49" fill="none" xmlns="http://www.w3.org/2000/svg">
<path d="M44.5 23.5V29.7C44.5 34.1804 44.5 36.4206 43.628 38.132C42.861 39.6372 41.6372 40.861 40.132 41.628C38.4206 42.5 36.1804 42.5 31.7 42.5H17.3C12.8196 42.5 10.5794 42.5 8.86808 41.628C7.36278 40.861 6.13894 39.6372 5.37194 38.132C4.5 36.4206 4.5 34.1804 4.5 29.7V19.3C4.5 14.8196 4.5 12.5794 5.37194 10.8681C6.13894 9.36278 7.36278 8.13894 8.86808 7.37194C10.5794 6.5 12.8196 6.5 17.3 6.5H25.5M38.5 16.5V4.5M32.5 10.5H44.5M32.5 24.5C32.5 28.9182 28.9182 32.5 24.5 32.5C20.0817 32.5 16.5 28.9182 16.5 24.5C16.5 20.0817 20.0817 16.5 24.5 16.5C28.9182 16.5 32.5 20.0817 32.5 24.5Z" stroke="#605D69" stroke-width="2.66667" stroke-linecap="round" stroke-linejoin="round"/>
</svg>
