<svg width="100" height="100" viewBox="0 0 100 100" fill="none" xmlns="http://www.w3.org/2000/svg">
<path d="M48.9583 39.5833C52.4607 39.5833 55.8844 38.5447 58.7966 36.5989C61.7087 34.6531 63.9784 31.8874 65.3187 28.6517C66.659 25.4159 67.0097 21.8553 66.3264 18.4202C65.6431 14.9852 63.9566 11.8298 61.48 9.35329C59.0035 6.87673 55.8481 5.19017 52.4131 4.50689C48.978 3.82361 45.4174 4.1743 42.1816 5.5146C38.9459 6.8549 36.1802 9.12462 34.2344 12.0367C32.2886 14.9489 31.25 18.3726 31.25 21.875C31.2555 26.5698 33.123 31.0708 36.4427 34.3906C39.7625 37.7103 44.2635 39.5778 48.9583 39.5833ZM48.9583 8.3333C51.6366 8.3333 54.2548 9.12751 56.4817 10.6155C58.7086 12.1035 60.4443 14.2184 61.4692 16.6928C62.4941 19.1672 62.7623 21.89 62.2398 24.5168C61.7173 27.1436 60.4276 29.5565 58.5337 31.4504C56.6399 33.3442 54.227 34.6339 51.6002 35.1564C48.9734 35.6789 46.2506 35.4108 43.7762 34.3858C41.3017 33.3609 39.1868 31.6252 37.6988 29.3983C36.2109 27.1714 35.4167 24.5533 35.4167 21.875C35.4211 18.2848 36.8492 14.843 39.3878 12.3044C41.9264 9.76584 45.3682 8.33771 48.9583 8.3333Z" fill="#19FB9B"/>
<path d="M47.9168 25H54.1668C54.7194 25 55.2493 24.7805 55.64 24.3898C56.0307 23.9991 56.2502 23.4692 56.2502 22.9167C56.2502 22.3642 56.0307 21.8343 55.64 21.4436C55.2493 21.0529 54.7194 20.8334 54.1668 20.8334H50.0002V16.6667C50.0002 16.1142 49.7807 15.5843 49.39 15.1936C48.9993 14.8029 48.4694 14.5834 47.9168 14.5834C47.3643 14.5834 46.8344 14.8029 46.4437 15.1936C46.053 15.5843 45.8335 16.1142 45.8335 16.6667V22.9167C45.8335 23.4692 46.053 23.9991 46.4437 24.3898C46.8344 24.7805 47.3643 25 47.9168 25Z" fill="#19FB9B"/>
<path d="M93.7498 91.6667H72.9165V83.3334H85.4165C86.8891 83.3362 88.3151 82.8177 89.442 81.8698C90.5689 80.922 91.324 79.6058 91.5736 78.1546C91.8231 76.7033 91.551 75.2106 90.8053 73.9407C90.0597 72.6709 88.8888 71.7059 87.4998 71.2167V56.25C87.4998 51.8298 85.7439 47.5905 82.6183 44.4649C79.4927 41.3393 75.2534 39.5834 70.8332 39.5834C66.4129 39.5834 62.1737 41.3393 59.0481 44.4649C55.9225 47.5905 54.1665 51.8298 54.1665 56.25V71.2167C52.7776 71.7059 51.6066 72.6709 50.861 73.9407C50.1154 75.2106 49.8433 76.7033 50.0928 78.1546C50.3423 79.6058 51.0974 80.922 52.2243 81.8698C53.3513 82.8177 54.7773 83.3362 56.2498 83.3334H68.7498V91.6667H29.1665V83.3334H41.6665C43.1391 83.3362 44.5651 82.8177 45.692 81.8698C46.8189 80.922 47.574 79.6058 47.8236 78.1546C48.0731 76.7033 47.801 75.2106 47.0553 73.9407C46.3097 72.6709 45.1388 71.7059 43.7498 71.2167V56.25C43.7498 51.8298 41.9939 47.5905 38.8683 44.4649C35.7427 41.3393 31.5034 39.5834 27.0832 39.5834C22.6629 39.5834 18.4237 41.3393 15.2981 44.4649C12.1725 47.5905 10.4165 51.8298 10.4165 56.25V71.2167C9.02758 71.7059 7.85662 72.6709 7.11101 73.9407C6.36539 75.2106 6.09325 76.7033 6.34278 78.1546C6.59231 79.6058 7.34741 80.922 8.47433 81.8698C9.60126 82.8177 11.0273 83.3362 12.4998 83.3334H24.9998V91.6667H6.24984C5.6973 91.6667 5.1674 91.8862 4.7767 92.2769C4.386 92.6676 4.1665 93.1975 4.1665 93.75C4.1665 94.3026 4.386 94.8325 4.7767 95.2232C5.1674 95.6139 5.6973 95.8334 6.24984 95.8334H93.7498C94.3024 95.8334 94.8323 95.6139 95.223 95.2232C95.6137 94.8325 95.8332 94.3026 95.8332 93.75C95.8332 93.1975 95.6137 92.6676 95.223 92.2769C94.8323 91.8862 94.3024 91.6667 93.7498 91.6667ZM58.3332 56.25C58.3332 52.9348 59.6501 49.7554 61.9943 47.4112C64.3385 45.067 67.518 43.75 70.8332 43.75C74.1484 43.75 77.3278 45.067 79.672 47.4112C82.0162 49.7554 83.3332 52.9348 83.3332 56.25V70.8334H58.3332V56.25ZM54.1665 77.0834C54.1665 76.5308 54.386 76.0009 54.7767 75.6102C55.1674 75.2195 55.6973 75 56.2498 75H85.4165C85.969 75 86.4989 75.2195 86.8896 75.6102C87.2803 76.0009 87.4998 76.5308 87.4998 77.0834C87.4998 77.6359 87.2803 78.1658 86.8896 78.5565C86.4989 78.9472 85.969 79.1667 85.4165 79.1667H56.2498C55.6973 79.1667 55.1674 78.9472 54.7767 78.5565C54.386 78.1658 54.1665 77.6359 54.1665 77.0834ZM14.5832 56.25C14.5832 52.9348 15.9001 49.7554 18.2443 47.4112C20.5885 45.067 23.768 43.75 27.0832 43.75C30.3984 43.75 33.5778 45.067 35.922 47.4112C38.2662 49.7554 39.5832 52.9348 39.5832 56.25V70.8334H14.5832V56.25ZM10.4165 77.0834C10.4165 76.5308 10.636 76.0009 11.0267 75.6102C11.4174 75.2195 11.9473 75 12.4998 75H41.6665C42.219 75 42.7489 75.2195 43.1396 75.6102C43.5303 76.0009 43.7498 76.5308 43.7498 77.0834C43.7498 77.6359 43.5303 78.1658 43.1396 78.5565C42.7489 78.9472 42.219 79.1667 41.6665 79.1667H12.4998C11.9473 79.1667 11.4174 78.9472 11.0267 78.5565C10.636 78.1658 10.4165 77.6359 10.4165 77.0834Z" fill="#19FB9B"/>
</svg>
