<svg width="32" height="33" viewBox="0 0 32 33" fill="none" xmlns="http://www.w3.org/2000/svg">
<path fill-rule="evenodd" clip-rule="evenodd" d="M12.3535 7.87548C12.7721 7.62642 13.3358 7.76515 13.6035 8.21111L13.7093 8.39392L13.7102 8.39541C14.2402 9.31914 15.0439 9.94842 16.0012 9.94842C16.958 9.94842 17.764 9.31983 18.2989 8.39703L18.2991 8.3967L18.4065 8.21111C18.6742 7.76515 19.2379 7.62642 19.6565 7.87548L19.6565 7.87557L19.6675 7.88187L21.3975 8.87187L21.3979 8.8721C21.9451 9.18482 22.1336 9.8935 21.8208 10.4354C21.286 11.3583 21.1423 12.3699 21.6202 13.1991C22.0981 14.0284 23.0452 14.4109 24.11 14.4109C24.7384 14.4109 25.26 14.9277 25.26 15.5609V17.3209C25.26 17.9492 24.7432 18.4709 24.11 18.4709C23.0452 18.4709 22.0981 18.8534 21.6202 19.6827C21.1426 20.5114 21.2858 21.5222 21.8198 22.4447C22.1351 22.9987 21.9438 23.6977 21.3979 24.0097L21.3975 24.0099L19.6675 24.9999L19.6674 24.9998L19.6565 25.0063C19.2379 25.2554 18.6742 25.1167 18.4065 24.6707L18.3007 24.4879L18.2999 24.4866C17.7699 23.5628 16.9662 22.9334 16.0087 22.9334C15.052 22.9334 14.246 23.562 13.7111 24.4848L13.7109 24.4851L13.6035 24.6707C13.3358 25.1167 12.7721 25.2554 12.3535 25.0063L12.3535 25.0062L12.3425 24.9999L10.6125 24.0099L10.6121 24.0097C10.0649 23.697 9.87642 22.9885 10.1891 22.4466C10.724 21.5236 10.8677 20.512 10.3898 19.6827C9.91192 18.8534 8.96479 18.4709 7.9 18.4709C7.26678 18.4709 6.75 17.9492 6.75 17.3209V15.5609C6.75 14.9325 7.26676 14.4109 7.9 14.4109C8.96479 14.4109 9.91192 14.0284 10.3898 13.1991C10.8677 12.3699 10.724 11.3584 10.1892 10.4354C9.87636 9.89355 10.0648 9.18483 10.6121 8.8721L10.6125 8.87187L12.3425 7.88187L12.3426 7.88197L12.3535 7.87548ZM10.1892 10.4354C10.1891 10.4352 10.189 10.435 10.1889 10.4348L9.54006 10.8109L10.1894 10.4357C10.1893 10.4356 10.1893 10.4355 10.1892 10.4354ZM14.8946 7.44745C14.2226 6.31795 12.7519 5.89747 11.5925 6.58284L9.8679 7.56974L9.86766 7.56988L9.86749 7.56997C8.59518 8.2973 8.16378 9.92817 8.8906 11.1861L8.89112 11.187C9.26606 11.8339 9.20721 12.2471 9.09018 12.4502C8.97308 12.6534 8.64521 12.9109 7.9 12.9109C6.43324 12.9109 5.25 14.1092 5.25 15.5609V17.3209C5.25 18.7725 6.43322 19.9709 7.9 19.9709C8.64521 19.9709 8.97308 20.2284 9.09018 20.4316C9.20721 20.6347 9.26606 21.0479 8.89112 21.6948L8.8906 21.6957C8.16378 22.9536 8.59518 24.5845 9.86749 25.3118L9.8679 25.3121L11.5926 26.299C12.752 26.9843 14.2226 26.5638 14.8946 25.4343L14.8946 25.4344L14.8991 25.4267L15.0089 25.237L15.009 25.2368L15.0091 25.2367C15.3841 24.5897 15.773 24.4334 16.0087 24.4334C16.2434 24.4334 16.6293 24.5884 16.9993 25.2339L17.0009 25.2367L17.1109 25.4267L17.1109 25.4267L17.1154 25.4343C17.7874 26.5638 19.258 26.9843 20.4174 26.299L22.1421 25.3121L22.1425 25.3118C23.4157 24.584 23.8444 22.9644 23.1212 21.6988L23.1212 21.6988L23.1189 21.6948C22.7439 21.0479 22.8028 20.6347 22.9198 20.4316C23.0369 20.2284 23.3648 19.9709 24.11 19.9709C25.5768 19.9709 26.76 18.7725 26.76 17.3209V15.5609C26.76 14.0941 25.5616 12.9109 24.11 12.9109C23.3648 12.9109 23.0369 12.6534 22.9198 12.4502C22.8028 12.2471 22.7439 11.8339 23.1189 11.187L23.1194 11.1861C23.8463 9.92804 23.4147 8.29696 22.1421 7.56974L20.4175 6.58285C19.2581 5.89747 17.7874 6.31794 17.1154 7.44745L17.1154 7.44743L17.1109 7.45514L17.0011 7.64482L17.0011 7.64494L17.0009 7.64514C16.6259 8.29206 16.237 8.44842 16.0012 8.44842C15.7666 8.44842 15.3807 8.29338 15.0107 7.64793L15.0091 7.64515L14.8991 7.45515L14.8991 7.45512L14.8946 7.44745ZM16 12.691C13.9289 12.691 12.25 14.3699 12.25 16.441C12.25 18.5121 13.9289 20.191 16 20.191C18.0711 20.191 19.75 18.5121 19.75 16.441C19.75 14.3699 18.0711 12.691 16 12.691ZM13.75 16.441C13.75 15.1983 14.7573 14.191 16 14.191C17.2427 14.191 18.25 15.1983 18.25 16.441C18.25 17.6837 17.2427 18.691 16 18.691C14.7573 18.691 13.75 17.6837 13.75 16.441Z" fill="white"/>
</svg>
